<svg width="132" height="40" viewBox="0 0 132 40" fill="none" xmlns="http://www.w3.org/2000/svg">
<rect x="0.1" y="4.1" width="31.8" height="31.8" rx="7.9" fill="white"/>
<rect x="0.1" y="4.1" width="31.8" height="31.8" rx="7.9" fill="url(#paint0_linear_36_508)"/>
<rect x="0.1" y="4.1" width="31.8" height="31.8" rx="7.9" stroke="#FFC69C" stroke-width="0.2"/>
<path d="M12.3575 13.3663C12.2414 13.2502 12.1036 13.1581 11.9519 13.0953C11.8002 13.0324 11.6377 13.0001 11.4735 13.0001C11.3093 13.0001 11.1467 13.0324 10.995 13.0953C10.8433 13.1581 10.7055 13.2502 10.5894 13.3663L8.24127 15.7145C8.12515 15.8306 8.03303 15.9684 7.97018 16.1201C7.90733 16.2718 7.87498 16.4343 7.87498 16.5985C7.87498 16.7627 7.90733 16.9253 7.97018 17.077C8.03303 17.2287 8.12515 17.3665 8.24127 17.4826L10.2675 19.5088C10.502 19.7431 10.8199 19.8746 11.1513 19.8745H13.5C13.7888 19.8745 14.1306 19.977 14.375 20.2601L20.7563 27.6476C20.9926 27.8722 21.3072 27.9955 21.6332 27.9914C21.9591 27.9873 22.2706 27.856 22.5011 27.6256C22.7317 27.3951 22.8631 27.0837 22.8673 26.7577C22.8715 26.4318 22.7483 26.1171 22.5238 25.8807L15.1356 19.4995C14.8525 19.2551 14.75 18.9132 14.75 18.6245V16.277C14.7501 15.9456 14.6186 15.6277 14.3844 15.3932L12.3575 13.3663ZM9.70565 12.4826C9.9378 12.2504 10.2134 12.0663 10.5167 11.9406C10.82 11.815 11.1451 11.7503 11.4735 11.7503C11.8018 11.7503 12.1269 11.815 12.4302 11.9406C12.7335 12.0663 13.0091 12.2504 13.2413 12.4826L15.2675 14.5088C15.7364 14.9776 15.9999 15.6134 16 16.2763V18.5951L16.0619 18.6482L16.7806 17.9945C16.9288 17.8595 17.0306 17.617 17.0463 17.2876C17.0838 16.4738 17.34 15.597 17.6856 14.8251C18.0294 14.0557 18.4881 13.3345 18.9738 12.8482C19.6771 12.145 20.631 11.7499 21.6256 11.75C22.6201 11.7501 23.574 12.1452 24.2772 12.8485C24.9804 13.5519 25.3755 14.5057 25.3754 15.5003C25.3754 16.4949 24.9802 17.4487 24.2769 18.152C23.7913 18.6376 23.07 19.0957 22.3 19.4401C21.5281 19.7857 20.6513 20.0413 19.8375 20.0795C19.5075 20.0945 19.2656 20.197 19.1306 20.3451L18.6444 20.8788L23.3763 24.9663L23.3925 24.982C23.6247 25.2141 23.8088 25.4897 23.9345 25.7931C24.0601 26.0964 24.1248 26.4215 24.1248 26.7498C24.1248 27.0781 24.0601 27.4032 23.9345 27.7065C23.8088 28.0098 23.6247 28.2854 23.3925 28.5176C23.1604 28.7497 22.8848 28.9339 22.5814 29.0595C22.2781 29.1852 21.953 29.2498 21.6247 29.2498C21.2964 29.2498 20.9713 29.1852 20.668 29.0595C20.3647 28.9339 20.089 28.7497 19.8569 28.5176L19.8406 28.5013L15.8806 23.9163L11.6294 28.5882L11.6094 28.6095C11.4061 28.8166 11.1636 28.9812 10.8961 29.0937C10.6286 29.2062 10.3413 29.2644 10.0511 29.2648C9.76091 29.2651 9.47351 29.2078 9.20567 29.096C8.93784 28.9842 8.69493 28.8203 8.49108 28.6137C8.28724 28.4071 8.12654 28.162 8.01835 27.8927C7.91015 27.6234 7.85663 27.3353 7.8609 27.0451C7.86516 26.7549 7.92713 26.4685 8.04318 26.2025C8.15924 25.9365 8.32707 25.6962 8.5369 25.4957L13.34 21.1251H11.1513C10.4883 21.125 9.8525 20.8615 9.38377 20.3926L7.35752 18.3663C7.12536 18.1342 6.9412 17.8586 6.81556 17.5553C6.68991 17.252 6.62524 16.9268 6.62524 16.5985C6.62524 16.2702 6.68991 15.9451 6.81556 15.6418C6.9412 15.3385 7.12536 15.0629 7.35752 14.8307L9.70565 12.4826ZM17.6981 20.062L18.2056 19.5038C18.6438 19.0226 19.2588 18.8551 19.7794 18.8307C20.3925 18.802 21.1131 18.602 21.7894 18.2995C22.4681 17.9957 23.0469 17.6145 23.3931 17.2682C23.862 16.7994 24.1254 16.1635 24.1254 15.5004C24.1254 14.8374 23.862 14.2014 23.3931 13.7326C22.9243 13.2637 22.2884 13.0003 21.6253 13.0003C20.9623 13.0003 20.3264 13.2637 19.8575 13.7326C19.5113 14.0788 19.13 14.6576 18.8263 15.3357C18.5238 16.012 18.3238 16.7326 18.295 17.3457C18.27 17.8663 18.1031 18.4807 17.6219 18.9188L17.0144 19.4713L17.6981 20.062ZM14.23 22.0051L9.39065 26.4088C9.21987 26.5857 9.12538 26.8225 9.12752 27.0683C9.12965 27.3141 9.22825 27.5492 9.40207 27.7231C9.57589 27.8969 9.81102 27.9955 10.0568 27.9976C10.3026 27.9997 10.5395 27.9052 10.7163 27.7345L15.0575 22.9632L14.23 22.0051ZM12.0675 14.4332C11.9503 14.3159 11.7914 14.25 11.6256 14.25C11.4598 14.2499 11.3007 14.3157 11.1835 14.4329C11.0662 14.5501 11.0003 14.7091 11.0002 14.8749C11.0002 14.957 11.0163 15.0383 11.0477 15.1141C11.0791 15.19 11.1251 15.2589 11.1831 15.317L12.5894 16.7232C12.7073 16.8371 12.8651 16.9001 13.029 16.8986C13.1929 16.8972 13.3497 16.8315 13.4655 16.7156C13.5814 16.5997 13.6471 16.443 13.6486 16.2791C13.65 16.1152 13.587 15.9573 13.4731 15.8395L12.0675 14.4332ZM9.30815 16.3082C9.42535 16.1911 9.5843 16.1252 9.75002 16.1252C9.91575 16.1252 10.0747 16.1911 10.1919 16.3082L11.5981 17.7145C11.6578 17.7721 11.7055 17.8411 11.7382 17.9173C11.771 17.9936 11.7882 18.0756 11.7889 18.1586C11.7897 18.2416 11.7738 18.3239 11.7424 18.4007C11.711 18.4775 11.6646 18.5473 11.6059 18.606C11.5472 18.6647 11.4774 18.7111 11.4006 18.7425C11.3238 18.7739 11.2415 18.7897 11.1585 18.789C11.0755 18.7883 10.9935 18.771 10.9173 18.7383C10.841 18.7055 10.7721 18.6579 10.7144 18.5982L9.30815 17.192C9.19098 17.0748 9.12516 16.9158 9.12516 16.7501C9.12516 16.5844 9.19098 16.4254 9.30815 16.3082ZM20.375 16.1251C20.375 15.9593 20.3092 15.8004 20.192 15.6832C20.0748 15.5659 19.9158 15.5001 19.75 15.5001C19.5843 15.5001 19.4253 15.5659 19.3081 15.6832C19.1909 15.8004 19.125 15.9593 19.125 16.1251C19.125 16.6224 19.3226 17.0993 19.6742 17.4509C20.0258 17.8026 20.5027 18.0001 21 18.0001C21.1658 18.0001 21.3248 17.9342 21.442 17.817C21.5592 17.6998 21.625 17.5409 21.625 17.3751C21.625 17.2093 21.5592 17.0504 21.442 16.9332C21.3248 16.8159 21.1658 16.7501 21 16.7501C20.8343 16.7501 20.6753 16.6842 20.5581 16.567C20.4409 16.4498 20.375 16.2909 20.375 16.1251Z" fill="white"/>
<path d="M41.548 26V13.22H46.642C49.36 13.22 51.07 14.714 51.07 17.072C51.07 18.566 50.08 19.7 48.892 20.06C50.062 20.24 50.746 20.96 50.854 22.274L51.196 26H49.234L48.928 22.526C48.856 21.482 48.28 21.014 46.876 21.014H43.492V26H41.548ZM43.492 19.232H46.678C48.136 19.232 49.054 18.476 49.054 17.126C49.054 15.758 48.154 15.002 46.516 15.002H43.492V19.232ZM57.2811 26.216C54.5091 26.216 52.7451 24.236 52.7451 21.212C52.7451 18.188 54.5091 16.208 57.2271 16.208C59.8371 16.208 61.6191 18.062 61.6191 21.284V21.77H54.7431C54.8331 23.642 55.7871 24.578 57.2991 24.578C58.4331 24.578 59.1891 24.02 59.4951 23.12L61.4751 23.246C60.9711 25.028 59.4051 26.216 57.2811 26.216ZM54.7431 20.33H59.5851C59.4771 18.638 58.5411 17.828 57.2271 17.828C55.8771 17.828 54.9591 18.71 54.7431 20.33ZM67.6526 26.216C64.8806 26.216 63.0986 24.236 63.0986 21.212C63.0986 18.188 64.8806 16.208 67.6526 16.208C69.9746 16.208 71.6126 17.468 71.9186 19.682L69.9386 19.79C69.7406 18.548 68.8586 17.864 67.6526 17.864C66.0326 17.864 65.0786 19.106 65.0786 21.212C65.0786 23.318 66.0326 24.56 67.6526 24.56C68.8586 24.56 69.7406 23.876 69.9386 22.49L71.9186 22.598C71.6126 24.794 69.9926 26.216 67.6526 26.216ZM73.5347 15.038V13.13H75.5147V15.038H73.5347ZM73.5707 26V16.424H75.4787V26H73.5707ZM77.9301 28.7V16.424H79.7301L79.7661 17.882C80.3241 16.784 81.3861 16.208 82.6641 16.208C85.4721 16.208 86.7681 18.512 86.7681 21.212C86.7681 23.912 85.4541 26.216 82.6641 26.216C81.4401 26.216 80.3601 25.64 79.8381 24.704V28.7H77.9301ZM82.3221 24.56C83.8521 24.56 84.7881 23.318 84.7881 21.212C84.7881 19.106 83.8521 17.864 82.3221 17.864C80.7921 17.864 79.8381 18.998 79.8381 21.212C79.8381 23.426 80.7741 24.56 82.3221 24.56ZM92.8065 26.216C90.0345 26.216 88.2705 24.236 88.2705 21.212C88.2705 18.188 90.0345 16.208 92.7525 16.208C95.3625 16.208 97.1445 18.062 97.1445 21.284V21.77H90.2685C90.3585 23.642 91.3125 24.578 92.8245 24.578C93.9585 24.578 94.7145 24.02 95.0205 23.12L97.0005 23.246C96.4965 25.028 94.9305 26.216 92.8065 26.216ZM90.2685 20.33H95.1105C95.0025 18.638 94.0665 17.828 92.7525 17.828C91.4025 17.828 90.4845 18.71 90.2685 20.33ZM99.1691 26V13.22H101.113V18.692H107.017V13.22H108.961V26H107.017V20.456H101.113V26H99.1691ZM114.672 26.216C112.728 26.216 111.522 24.866 111.522 22.58V16.424H113.43V22.094C113.43 23.84 114.024 24.614 115.248 24.614C116.634 24.614 117.462 23.678 117.462 22.04V16.424H119.37V26H117.588L117.57 24.434C117.066 25.604 116.058 26.216 114.672 26.216ZM126.61 26.216C125.278 26.216 124.216 25.604 123.676 24.56L123.622 26H121.84V13.22H123.748V17.774C124.234 16.946 125.278 16.208 126.61 16.208C129.112 16.208 130.678 18.152 130.678 21.212C130.678 24.272 129.112 26.216 126.61 26.216ZM126.304 24.56C127.762 24.56 128.698 23.282 128.698 21.212C128.698 19.106 127.78 17.864 126.322 17.864C124.702 17.864 123.748 19.106 123.748 21.212C123.748 23.282 124.702 24.56 126.304 24.56Z" fill="#101828"/>
<defs>
<linearGradient id="paint0_linear_36_508" x1="16" y1="4" x2="16" y2="36" gradientUnits="userSpaceOnUse">
<stop stop-color="#FF6429"/>
<stop offset="1" stop-color="#FFAA6B"/>
</linearGradient>
</defs>
</svg>
