<svg width="16" height="16" viewBox="0 0 16 16" fill="none" xmlns="http://www.w3.org/2000/svg">
<path fill-rule="evenodd" clip-rule="evenodd" d="M8.40001 7.66859L10.994 10.2626L10.4287 10.8286L7.60001 7.99992V3.99992H8.40001V7.66859ZM8.00001 14.6666C4.31801 14.6666 1.33334 11.6819 1.33334 7.99992C1.33334 4.31792 4.31801 1.33325 8.00001 1.33325C11.682 1.33325 14.6667 4.31792 14.6667 7.99992C14.6667 11.6819 11.682 14.6666 8.00001 14.6666ZM8.00001 13.8666C9.55595 13.8666 11.0482 13.2485 12.1484 12.1483C13.2486 11.0481 13.8667 9.55585 13.8667 7.99992C13.8667 6.44398 13.2486 4.95177 12.1484 3.85156C11.0482 2.75135 9.55595 2.13325 8.00001 2.13325C6.44407 2.13325 4.95186 2.75135 3.85165 3.85156C2.75144 4.95177 2.13334 6.44398 2.13334 7.99992C2.13334 9.55585 2.75144 11.0481 3.85165 12.1483C4.95186 13.2485 6.44407 13.8666 8.00001 13.8666Z" fill="#344054"/>
</svg>
